HIERARCHY
ROOT Hips
{
	OFFSET	0.00	0.00	0.00
	CHANNELS 6 Xposition Yposition Zposition Zrotation Xrotation Yrotation
	JOINT LeftUpLeg
	{
		OFFSET	 0.126116	-0.014019	-0.065224
		CHANNELS 3 Zrotation Xrotation Yrotation
		JOINT LeftLeg
		{
			OFFSET	 0.000000	 0.000000	 0.569914
			CHANNELS 3 Zrotation Xrotation Yrotation
			JOINT LeftFoot
			{
				OFFSET	 0.000000	 0.000000	 0.544423
				CHANNELS 3 Zrotation Xrotation Yrotation
				JOINT LeftToeBase
				{
					OFFSET	 0.000000	 0.000000	 0.207117
					CHANNELS 3 Zrotation Xrotation Yrotation
					End Site
					{
						OFFSET	 0.000000	 0.000000	 0.207117
					}
				}
			}
		}
	}
	JOINT RightUpLeg
	{
		OFFSET	-0.124023	-0.008373	-0.065224
		CHANNELS 3 Zrotation Xrotation Yrotation
		JOINT RightLeg
		{
			OFFSET	 0.000000	 0.000000	 0.570047
			CHANNELS 3 Zrotation Xrotation Yrotation
			JOINT RightFoot
			{
				OFFSET	 0.000000	 0.000000	 0.544354
				CHANNELS 3 Zrotation Xrotation Yrotation
				JOINT RightToeBase
				{
					OFFSET	 0.000000	 0.000000	 0.207540
					CHANNELS 3 Zrotation Xrotation Yrotation
					End Site
					{
						OFFSET	 0.000000	 0.000000	 0.207540
					}
				}
			}
		}
	}
	JOINT Spine
	{
		OFFSET	 0.000184	-0.007763	 0.117403
		CHANNELS 3 Zrotation Xrotation Yrotation
		JOINT Spine1
		{
			OFFSET	 0.000000	 0.000000	 0.137269
			CHANNELS 3 Zrotation Xrotation Yrotation
			JOINT Spine2
			{
				OFFSET	 0.000000	 0.000000	 0.156879
				CHANNELS 3 Zrotation Xrotation Yrotation
				JOINT LeftShoulder
				{
					OFFSET	 0.080501	-0.002496	 0.160144
					CHANNELS 3 Zrotation Xrotation Yrotation
					JOINT LeftArm
					{
						OFFSET	 0.000000	 0.000000	 0.164363
						CHANNELS 3 Zrotation Xrotation Yrotation
						JOINT LeftForeArm
						{
							OFFSET	 0.000000	 0.000000	 0.364576
							CHANNELS 3 Zrotation Xrotation Yrotation
							JOINT LeftHand
							{
								OFFSET	 0.000000	 0.000000	 0.360812
								CHANNELS 3 Zrotation Xrotation Yrotation
								JOINT LeftHandIndex1
								{
									OFFSET	 0.000000	 0.000000	 0.086006
									CHANNELS 3 Zrotation Xrotation Yrotation
									JOINT LeftHandIndex2
									{
										OFFSET	 0.000000	 0.000000	 0.047236
										CHANNELS 3 Zrotation Xrotation Yrotation
										JOINT LeftHandIndex3
										{
											OFFSET	-0.004284	-0.000551	 0.038166
											CHANNELS 3 Zrotation Xrotation Yrotation
											End Site
											{
												OFFSET	-0.004284	-0.000551	 0.038166
											}
										}
									}
								}
							}
						}
					}
				}
				JOINT Neck
				{
					OFFSET	 0.000000	 0.000000	 0.176489
					CHANNELS 3 Zrotation Xrotation Yrotation
					JOINT Head
					{
						OFFSET	 0.000000	-0.001747	 0.077940
						CHANNELS 3 Zrotation Xrotation Yrotation
						End Site
						{
							OFFSET	 0.000000	-0.001747	 0.077940
						}
					}
				}
				JOINT RightShoulder
				{
					OFFSET	-0.080363	 0.000306	 0.159706
					CHANNELS 3 Zrotation Xrotation Yrotation
					JOINT RightArm
					{
						OFFSET	 0.000000	 0.000000	 0.164196
						CHANNELS 3 Zrotation Xrotation Yrotation
						JOINT RightForeArm
						{
							OFFSET	 0.000000	 0.000000	 0.365611
							CHANNELS 3 Zrotation Xrotation Yrotation
							JOINT RightHand
							{
								OFFSET	 0.000000	 0.000000	 0.360648
								CHANNELS 3 Zrotation Xrotation Yrotation
								JOINT RightHandIndex1
								{
									OFFSET	 0.000000	 0.000000	 0.069977
									CHANNELS 3 Zrotation Xrotation Yrotation
									JOINT RightHandIndex2
									{
										OFFSET	 0.000000	 0.000000	 0.052305
										CHANNELS 3 Zrotation Xrotation Yrotation
										JOINT RightHandIndex3
										{
											OFFSET	 0.009002	-0.000782	 0.042196
											CHANNELS 3 Zrotation Xrotation Yrotation
											End Site
											{
												OFFSET	 0.009002	-0.000782	 0.042196
											}
										}
									}
								}
							}
						}
					}
				}
			}
		}
	}
}
MOTION
Frames:    8
Frame Time: 0.03333334
-0.030571	-1.787521	 1.252830	-1.646272	 0.416765	 0.139886	 4.120881	-1.741005	 179.845800	 3.148374	-11.594570	 1.749879	 4.354856	 71.406410	 1.230548	-2.385833	 28.452760	 0.000004	-4.121233	-2.153045	-179.879800	-3.140193	-11.964010	-1.790653	-4.386740	 71.428390	-1.219508	 2.384659	 28.388700	-0.000001	 7.064063	 2.961124	 0.140632	 11.771400	-1.302636	 0.914715	 14.128750	-1.539081	 1.128727	-96.855680	 86.735770	-170.910800	 12.090980	 1.915943	-6.709803	-4.245867	-0.921598	-0.250965	-17.028890	-10.836240	-4.403463	-2.482367	 5.116409	 7.306710	-5.213516	-0.193813	 3.566525	-1.378229	 35.397820	-2.634230	-0.000002	-3.783157	-0.089647	 3.506933	 0.827917	-0.025346	 104.097500	 88.275240	 160.879200	-12.297030	 2.928372	 8.184141	 4.452777	-0.477591	 0.392385	 17.501670	-11.912070	 8.809750	 3.315085	 2.709412	-9.595269	 5.070815	-0.697434	-9.399699	-2.350882	 35.473990	 5.254307
-0.033709	-1.773886	 1.254281	-4.109962	 9.230996	 3.039032	 5.519842	-20.384240	 175.404100	-4.326324	-36.457600	-1.103212	-1.243830	 83.607050	-0.562764	-2.330368	 36.830800	-0.193711	-1.822401	-22.147860	-178.960300	-1.980486	-39.956410	-0.851325	-1.521874	 86.610770	 0.851209	 2.394525	 25.815760	-0.054754	 7.536702	 4.539246	-1.612646	 12.721520	 3.157493	-1.982757	 14.960100	 1.334938	 0.820225	-101.304900	 88.600590	-167.851100	 53.988560	 68.253040	-63.757510	-4.785808	-4.281204	-17.262880	 7.071698	-12.793040	-5.433237	-2.526092	-11.454400	 5.924593	-5.213516	-0.193813	 3.566525	-1.378229	 35.397820	-2.634230	 0.762804	 1.425969	 0.681127	 4.152870	 2.489160	 0.060663	 96.694210	 87.918500	 170.150200	-51.512730	 75.667750	 64.800850	-2.314905	-12.725360	 23.133360	-24.158410	-13.611970	 9.827403	-7.383322	-4.245730	-36.967240	 5.070815	-0.697434	-9.399699	-2.350882	 35.473990	 5.254307
-0.037477	-1.779887	 1.253646	-3.616395	 8.918456	 2.820532	 5.298006	-19.904640	 175.358200	-4.198097	-36.462020	-1.156356	-1.352083	 83.801220	-0.535856	-2.325393	 37.367660	-0.207188	-1.786894	-20.201180	-179.001100	-1.398470	-37.595360	-0.495280	-1.284709	 86.504250	 1.074322	 2.392476	 26.419670	-0.042058	 7.277835	 4.201413	-1.532870	 12.538390	 3.316608	-1.982681	 14.995920	 1.490324	 0.801814	-100.430900	 88.611250	-168.983300	 52.998290	 68.724280	-62.499390	-4.659395	-4.229369	-16.191210	 7.574332	-12.878380	-5.419038	-3.436174	-11.890860	 3.797785	-5.213516	-0.193813	 3.566525	-1.378229	 35.397820	-2.634230	 0.741925	 1.688910	 0.843880	 4.320601	 3.086618	-0.115742	 97.123120	 88.011210	 169.707500	-52.572480	 75.689730	 65.334690	-2.672298	-12.650190	 22.934100	-24.190870	-13.667160	 9.827984	-7.247991	-4.190659	-36.661580	 5.070815	-0.697434	-9.399699	-2.350882	 35.473990	 5.254307
-0.042059	-1.784660	 1.253727	-3.221599	 8.848890	 2.908980	 5.003829	-19.460890	 175.043500	-4.044250	-36.158940	-1.232068	-1.446626	 83.647940	-0.567513	-2.322205	 37.701100	-0.215632	-2.160501	-18.893010	-179.457400	-1.048523	-35.487610	-0.554202	-1.541028	 86.441570	 1.287898	 2.393254	 26.195390	-0.046782	 7.106978	 3.786363	-1.843168	 12.435900	 3.397513	-2.001719	 14.987460	 1.650013	 0.780404	-99.122510	 88.484310	-170.434200	 52.560330	 69.403560	-62.296630	-4.860104	-4.250197	-15.474070	 8.141877	-12.986060	-5.408343	-3.245279	-11.975280	 4.237509	-5.213516	-0.193813	 3.566525	-1.378229	 35.397820	-2.634230	 0.761117	 1.927142	 1.060955	 4.392831	 3.624209	-0.188764	 98.041730	 88.208240	 168.810000	-53.165980	 75.812960	 65.333210	-2.888104	-12.570240	 22.772450	-24.170910	-13.754340	 9.831388	-7.113199	-4.004374	-36.454610	 5.070815	-0.697434	-9.399699	-2.350882	 35.473990	 5.254307
-0.045902	-1.788005	 1.254238	-3.873982	 8.892146	 3.291093	 4.915144	-19.046650	 174.747500	-4.315669	-35.552030	-1.426407	-1.513780	 83.262440	-0.824803	-2.323021	 37.616890	-0.213496	-2.444417	-18.412020	-179.844600	-1.651903	-34.593350	-1.085807	-2.258606	 86.065570	 1.228909	 2.397737	 24.755470	-0.076836	 7.310618	 3.320260	-2.209109	 12.645410	 3.275285	-2.054951	 14.991170	 1.598045	 0.787420	-98.812840	 88.373460	-170.656200	 52.220770	 70.302580	-62.066220	-5.787744	-4.283468	-15.612390	 8.145990	-13.109730	-5.412538	-3.727387	-12.603370	 3.121785	-5.213516	-0.193813	 3.566525	-1.378229	 35.397820	-2.634230	 0.976462	 2.243073	 1.126359	 4.333059	 3.669619	-0.194854	 98.195590	 88.325440	 168.829200	-53.253800	 75.849610	 65.096180	-3.101040	-12.512390	 22.590800	-24.210250	-13.884030	 9.834243	-7.013629	-3.767438	-36.375560	 5.070815	-0.697434	-9.399699	-2.350882	 35.473990	 5.254307
-0.048660	-1.789810	 1.255012	-4.664498	 8.892977	 2.772051	 5.077318	-18.337770	 175.205200	-4.696111	-34.761930	-1.488835	-1.580873	 82.945210	-0.929622	-2.325072	 37.401230	-0.208042	-2.466297	-18.596140	-179.421800	-1.914731	-34.463200	-1.218069	-2.600726	 86.051270	 1.379769	 2.397069	 24.989960	-0.071971	 7.492075	 3.220884	-1.534809	 12.697190	 3.082494	-1.765320	 14.921360	 1.346719	 0.816539	-99.375480	 88.435270	-170.019900	 53.503490	 70.076290	-62.979050	-6.515935	-4.159364	-16.783050	 6.922029	-13.237110	-5.438757	-3.858525	-13.047700	 2.822763	-5.213516	-0.193813	 3.566525	-1.378229	 35.397820	-2.634230	 1.100408	 2.216498	 0.973715	 4.307641	 3.827474	-0.520355	 97.562290	 88.251130	 169.535400	-52.864900	 75.755070	 64.738720	-3.374330	-12.497070	 22.371850	-24.372210	-14.041610	 9.837358	-6.967470	-3.632829	-36.357470	 5.070815	-0.697434	-9.399699	-2.350882	 35.473990	 5.254307
-0.051156	-1.791020	 1.256195	-4.807139	 8.896768	 2.447477	 5.133934	-17.873020	 175.424500	-4.744550	-34.009880	-1.426481	-1.686516	 82.822470	-0.817380	-2.326805	 37.217340	-0.203400	-2.499110	-18.563960	-179.298500	-1.827460	-34.682850	-1.176534	-2.719909	 86.056280	 1.567718	 2.396027	 25.338110	-0.064733	 7.298776	 3.294903	-1.352370	 12.453030	 2.959284	-1.563247	 14.769680	 1.157863	 0.832554	-98.896170	 88.373940	-170.546200	 56.071890	 68.786940	-65.510120	-5.424311	-4.195084	-17.559440	 6.559355	-13.435520	-5.452055	-3.529583	-12.141280	 3.578971	-5.213516	-0.193813	 3.566525	-1.378229	 35.397820	-2.634230	 1.099027	 2.184605	 1.010345	 4.337697	 3.909706	-0.525672	 98.113380	 88.294750	 168.879700	-51.988330	 75.588100	 64.068120	-3.639005	-12.476100	 22.119960	-24.548890	-14.256930	 9.844016	-7.001556	-3.688877	-36.403680	 5.070815	-0.697434	-9.399699	-2.350882	 35.473990	 5.254307
-0.052998	-1.792501	 1.257298	-4.529664	 8.940083	 2.302577	 5.102745	-17.677900	 175.458700	-4.597361	-33.599950	-1.332373	-1.766067	 82.762940	-0.638662	-2.327825	 37.107010	-0.200633	-2.537666	-18.437410	-179.298700	-1.582956	-34.788960	-1.056526	-2.761035	 86.051660	 1.788261	 2.394764	 25.743730	-0.056258	 6.894997	 3.078301	-1.444407	 12.034640	 2.893565	-1.486806	 14.524060	 1.045256	 0.832863	-97.914940	 88.273420	-171.700800	 57.943730	 67.718160	-67.924110	-4.108181	-4.411279	-17.968700	 6.978009	-13.717910	-5.457586	-3.235306	-11.113710	 4.280096	-5.213516	-0.193813	 3.566525	-1.378229	 35.397820	-2.634230	 1.022588	 2.293643	 1.036257	 4.347070	 3.946658	-0.248324	 99.640310	 88.475820	 167.248500	-50.067430	 75.440020	 62.292080	-3.685494	-12.462140	 22.020300	-24.571980	-14.544480	 9.855097	-7.053551	-3.711202	-36.521850	 5.070815	-0.697434	-9.399699	-2.350882	 35.473990	 5.254307
